<?xml version="1.0"?>
<svg xmlns="http://www.w3.org/2000/svg" viewBox="0 0 64 64" width="512" height="512"><g id="Knife"><path d="M58.87,3.716a6.006,6.006,0,0,0-8.485,0L37.657,16.444a3,3,0,1,0-4.243,4.242l0,0-30.4,30.4a1,1,0,0,0,.567,1.7l2.969.42c.48.069.966.118,1.451.157V59a3.015,3.015,0,0,0,3,3,3,3,0,0,0,3-3V53.122a23.628,23.628,0,0,0,2.467-.516,2.8,2.8,0,0,0,.407.5A2.944,2.944,0,0,0,19,54a3,3,0,0,0,3-3v-.583a24.7,24.7,0,0,0,5.757-4.27L43.311,30.583l2.832,2.831a3,3,0,1,0,4.242-4.242l-4.243-4.243L58.87,12.2A6.007,6.007,0,0,0,58.87,3.716ZM6.83,51.23l-.986-.14L8,48.934v2.429C7.609,51.329,7.218,51.285,6.83,51.23ZM16,50.663q-1.014.27-2,.436V49a.978.978,0,0,1,.306-.712A.957.957,0,0,1,15,48a1,1,0,0,1,1,1ZM19,52a.978.978,0,0,1-.713-.306A.965.965,0,0,1,18,51V49a3,3,0,0,0-3-3,3.017,3.017,0,0,0-3,3V59a1,1,0,0,1-1,1,.978.978,0,0,1-.713-.306A.965.965,0,0,1,10,59V46.934l10-10V51A1,1,0,0,1,19,52Zm7.343-7.267A22.7,22.7,0,0,1,22,48.128V34.934L34.83,22.1,41.9,29.17Zm22.921-13.44a.993.993,0,0,1-.293.707,1.022,1.022,0,0,1-1.413,0h0L34.828,19.271a1,1,0,0,1,1.415-1.413L48.971,30.586A.993.993,0,0,1,49.264,31.293ZM39.071,17.858,50.385,6.544,56.042,12.2,44.728,23.515Zm18.385-7.071L51.8,5.13a4,4,0,0,1,5.657,5.657Z"/><path d="M33.414,26.343,24.808,34.95a1,1,0,1,0,1.414,1.414l8.606-8.607a1,1,0,0,0-1.414-1.414Z"/><path d="M20.687,55.274a1,1,0,0,0-1.375,0C18.77,55.788,17,57.576,17,59a3,3,0,0,0,6,0C23,57.576,21.23,55.788,20.687,55.274ZM20,60a1,1,0,0,1-1-1,4.3,4.3,0,0,1,1-1.553A4.289,4.289,0,0,1,21,59,1,1,0,0,1,20,60Z"/></g></svg>
